<svg width="26" height="20" viewBox="0 0 26 20" fill="none" xmlns="http://www.w3.org/2000/svg">
<g id="Frame 5617">
<g id="Group">
<path id="Vector" d="M21.6715 1.90225C24.5474 6.16053 25.9677 10.9638 25.4367 16.4934C25.4345 16.5168 25.4224 16.5383 25.4033 16.5524C23.2255 18.1628 21.1154 19.1402 19.035 19.7884C19.0188 19.7933 19.0015 19.7931 18.9854 19.7876C18.9694 19.7821 18.9555 19.7718 18.9456 19.7579C18.4649 19.0844 18.0282 18.3744 17.6456 17.6288C17.6236 17.5849 17.6437 17.532 17.6889 17.5147C18.3825 17.2515 19.042 16.9361 19.6764 16.5626C19.7264 16.5331 19.7295 16.461 19.6834 16.4264C19.5487 16.3257 19.4154 16.2199 19.2877 16.1142C19.2639 16.0946 19.2317 16.0908 19.2047 16.1039C15.0861 18.0192 10.5745 18.0192 6.40726 16.1039C6.38021 16.0917 6.34806 16.0959 6.32482 16.1151C6.1975 16.2209 6.06381 16.3257 5.93045 16.4264C5.88429 16.461 5.88811 16.5331 5.9384 16.5626C6.57278 16.929 7.23231 17.2515 7.92493 17.516C7.96982 17.5333 7.99114 17.5849 7.96886 17.6288C7.59454 18.3754 7.15782 19.0854 6.66827 19.7589C6.64695 19.7861 6.61193 19.7986 6.57883 19.7884C4.50827 19.1402 2.39823 18.1628 0.220399 16.5524C0.202255 16.5383 0.189205 16.5158 0.187295 16.4924C-0.25642 11.7094 0.64788 6.8664 3.94901 1.90129C3.95696 1.88815 3.96906 1.87789 3.98306 1.8718C5.60737 1.12105 7.34753 0.568733 9.16632 0.253304C9.19942 0.248176 9.23253 0.263562 9.24971 0.293054C9.47444 0.69375 9.73131 1.2076 9.9051 1.62753C11.8222 1.33262 13.7693 1.33262 15.7266 1.62753C15.9003 1.21658 16.1483 0.69375 16.3721 0.293054C16.38 0.278423 16.3924 0.266702 16.4074 0.259564C16.4223 0.252426 16.4392 0.250235 16.4555 0.253304C18.2752 0.569695 20.0154 1.12201 21.6384 1.8718C21.6527 1.87789 21.6645 1.88815 21.6715 1.90225ZM10.8797 10.9965C10.8998 9.58248 9.87614 8.41245 8.59114 8.41245C7.31666 8.41245 6.30286 9.57223 6.30286 10.9965C6.30286 12.4204 7.33671 13.5802 8.59114 13.5802C9.86595 13.5802 10.8797 12.4204 10.8797 10.9965ZM19.3409 10.9965C19.3609 9.58248 18.3373 8.41245 17.0526 8.41245C15.7778 8.41245 14.764 9.57223 14.764 10.9965C14.764 12.4204 15.7979 13.5802 17.0526 13.5802C18.3373 13.5802 19.3409 12.4204 19.3409 10.9965Z" fill="white"/>
</g>
</g>
</svg>
