<svg xmlns="http://www.w3.org/2000/svg" width="22" height="22" viewBox="0 0 22 22" fill="none">
  <path fill-rule="evenodd" clip-rule="evenodd" d="M20.8446 11.5146C21.1932 11.5146 21.4762 11.7976 21.4762 12.1463V20.9897C21.4762 21.1729 21.3966 21.3459 21.2602 21.4647C21.144 21.567 20.9962 21.6213 20.8446 21.6213C20.8168 21.6213 20.7877 21.6201 20.7599 21.6163L10.6537 20.2367C10.3404 20.1938 10.1067 19.9259 10.1067 19.6101V12.1463C10.1067 11.7976 10.3897 11.5146 10.7384 11.5146H20.8446ZM8.21181 11.5146C8.56047 11.5146 8.84344 11.7976 8.84344 12.1463V19.2437C8.84344 19.4269 8.76386 19.6 8.62616 19.72C8.50994 19.8211 8.36341 19.8754 8.21181 19.8754C8.18402 19.8754 8.15369 19.8741 8.12591 19.8691L0.546243 18.818C0.232944 18.775 0.000514522 18.5085 0.000514522 18.1926V12.1463C0.000514522 11.7976 0.28349 11.5146 0.632146 11.5146H8.21181ZM8.1254 1.89637C8.30605 1.86984 8.48797 1.92542 8.62566 2.04544C8.76462 2.16547 8.84294 2.3398 8.84294 2.52173V9.61918C8.84294 9.96913 8.56123 10.2508 8.21131 10.2508H0.631631C0.282976 10.2508 0 9.96913 0 9.61918V3.57283C0 3.25825 0.232441 2.99043 0.545729 2.94747L8.1254 1.89637ZM20.7601 0.150167C20.9407 0.127426 21.1226 0.180481 21.2603 0.300505C21.3967 0.420529 21.4763 0.593608 21.4763 0.775524V9.61894C21.4763 9.96889 21.1934 10.2506 20.8447 10.2506H10.7385C10.3898 10.2506 10.1068 9.96889 10.1068 9.61895V2.15509C10.1068 1.83926 10.3393 1.57268 10.6538 1.52973L20.7601 0.150167Z" fill="#BABABA"/>
</svg>