<svg xmlns="http://www.w3.org/2000/svg" width="56" height="14" viewBox="0 0 56 14" fill="none"><path fill-rule="evenodd" clip-rule="evenodd" d="M13.414 7.3166C13.6384 7.3166 13.8205 7.49871 13.8205 7.72309V13.4141C13.8205 13.5319 13.7693 13.6433 13.6815 13.7197C13.6067 13.7856 13.5115 13.8205 13.414 13.8205C13.3961 13.8205 13.3774 13.8197 13.3595 13.8173L6.85593 12.9295C6.65433 12.9019 6.50392 12.7295 6.50392 12.5263V7.72309C6.50392 7.49871 6.68603 7.3166 6.9104 7.3166H13.414ZM5.2845 7.3166C5.50887 7.3166 5.69098 7.49871 5.69098 7.72309V12.2905C5.69098 12.4084 5.63976 12.5198 5.55115 12.597C5.47636 12.662 5.38206 12.697 5.2845 12.697C5.26662 12.697 5.2471 12.6962 5.22922 12.6929L0.351521 12.0165C0.149905 11.9889 0.000331107 11.8173 0.000331107 11.6141V7.72309C0.000331107 7.49871 0.182433 7.3166 0.406802 7.3166H5.2845ZM5.22889 1.12704C5.34515 1.10996 5.46222 1.14573 5.55082 1.22297C5.64025 1.30021 5.69065 1.4124 5.69065 1.52947V6.09686C5.69065 6.32206 5.50936 6.50335 5.28418 6.50335H0.40647C0.182102 6.50335 0 6.32206 0 6.09686V2.20588C0 2.00344 0.149581 1.83109 0.35119 1.80345L5.22889 1.12704ZM13.3596 0.00331247C13.4759 -0.0113218 13.5929 0.0228201 13.6815 0.100059C13.7693 0.177297 13.8205 0.288678 13.8205 0.405745V6.0967C13.8205 6.3219 13.6384 6.5032 13.4141 6.5032H6.91047C6.6861 6.5032 6.504 6.3219 6.504 6.09671V1.29353C6.504 1.09028 6.65358 0.918738 6.85601 0.891096L13.3596 0.00331247Z" fill="white"></path><path fill-rule="evenodd" clip-rule="evenodd" d="M30.6943 2.20638C31.1914 1.62247 31.5265 0.809187 31.4348 0C30.7184 0.0276414 29.8517 0.463785 29.3381 1.04701C28.8768 1.56459 28.4741 2.3916 28.5824 3.1849C29.3815 3.24501 30.1972 2.79098 30.6943 2.20638ZM32.4862 7.34223C32.5062 9.43397 34.3754 10.1298 34.3961 10.1388C34.3809 10.1878 34.0976 11.1302 33.4115 12.1046C32.8179 12.9462 32.2022 13.7845 31.2321 13.8025C30.2792 13.8197 29.9724 13.2538 28.8823 13.2538C27.7929 13.2538 27.4523 13.7844 26.5505 13.8197C25.6142 13.8535 24.9006 12.909 24.3028 12.0701C23.0796 10.3543 22.1454 7.22136 23.4002 5.10683C24.0235 4.05717 25.137 3.39145 26.3464 3.37486C27.2655 3.35759 28.1335 3.97547 28.6955 3.97547C29.2574 3.97547 30.3123 3.23261 31.421 3.3418C31.885 3.36045 33.1881 3.52348 34.0245 4.71273C33.9569 4.7535 32.4697 5.59395 32.4862 7.34223Z" fill="white"></path><path d="M50.3336 6.60984L52.5787 4.33767L45.327 0.212875C44.8464 -0.0499196 44.3962 -0.0868028 44.0013 0.20058L50.3336 6.60984ZM52.9614 9.27006L55.2954 7.94149C55.751 7.6833 56.0007 7.31754 56.0007 6.91182C56.0007 6.50688 55.751 6.14035 55.2962 5.88216L53.1831 4.68115L50.8043 7.08779L52.9614 9.27006ZM43.6111 0.75921C43.5625 0.910586 43.5352 1.07963 43.5352 1.26482V12.5642C43.5352 12.857 43.5989 13.109 43.7143 13.3096L49.8621 7.08702L43.6111 0.75921ZM50.3336 7.56343L44.22 13.7514C44.3369 13.7967 44.463 13.8205 44.5958 13.8205C44.8327 13.8205 45.0795 13.7499 45.3308 13.6085L52.3578 9.61507L50.3336 7.56343Z" fill="white"></path></svg>