<svg xmlns="http://www.w3.org/2000/svg" width="19" height="22" viewBox="0 0 19 22" fill="none">
  <path fill-rule="evenodd" clip-rule="evenodd" d="M12.7365 3.57361C13.509 2.66624 14.0297 1.40245 13.8872 0.14502C12.774 0.187973 11.4273 0.865715 10.6291 1.77201C9.91228 2.5763 9.28658 3.86142 9.45479 5.09416C10.6966 5.18758 11.964 4.48204 12.7365 3.57361ZM15.5211 11.5544C15.5522 14.8049 18.4568 15.8861 18.489 15.9001C18.4654 15.9763 18.025 17.4407 16.959 18.9548C16.0365 20.2627 15.0797 21.5653 13.5722 21.5932C12.0915 21.6201 11.6148 20.7407 9.92085 20.7407C8.22801 20.7407 7.69874 21.5652 6.29732 21.62C4.84234 21.6726 3.73342 20.2049 2.8045 18.9013C0.903811 16.235 -0.547956 11.3666 1.40202 8.08074C2.37058 6.44962 4.10092 5.41513 5.98018 5.38936C7.40838 5.36252 8.7573 6.32267 9.6305 6.32267C10.5037 6.32267 12.143 5.16831 13.8658 5.33798C14.5869 5.36697 16.6118 5.6203 17.9115 7.46833C17.8065 7.53168 15.4954 8.83769 15.5211 11.5544Z" fill="#BABABA"/>
</svg>