<svg width="20" height="20" viewBox="0 0 20 20" fill="none" xmlns="http://www.w3.org/2000/svg">
<path id="Vector" d="M6.66918 10C6.66918 8.15912 8.16067 6.6664 10.001 6.6664C11.8414 6.6664 13.3337 8.15912 13.3337 10C13.3337 11.8409 11.8414 13.3336 10.001 13.3336C8.16067 13.3336 6.66918 11.8409 6.66918 10ZM4.86762 10C4.86762 12.836 7.16584 15.1349 10.001 15.1349C12.8362 15.1349 15.1344 12.836 15.1344 10C15.1344 7.164 12.8362 4.86512 10.001 4.86512C7.16584 4.86512 4.86762 7.164 4.86762 10ZM14.138 4.66152C14.1379 4.89886 14.2082 5.13089 14.3399 5.32829C14.4716 5.52568 14.6589 5.67956 14.8781 5.77047C15.0973 5.86138 15.3385 5.88524 15.5712 5.83904C15.8039 5.79283 16.0177 5.67862 16.1856 5.51087C16.3534 5.34311 16.4678 5.12934 16.5141 4.89658C16.5605 4.66382 16.5369 4.42253 16.4462 4.20322C16.3554 3.98392 16.2018 3.79644 16.0045 3.6645C15.8073 3.53257 15.5754 3.4621 15.3381 3.462H15.3376C15.0196 3.46215 14.7146 3.58856 14.4897 3.81347C14.2648 4.03837 14.1383 4.34339 14.138 4.66152ZM5.96219 18.1398C4.98751 18.0954 4.45774 17.933 4.10568 17.7958C3.63894 17.614 3.30591 17.3975 2.95577 17.0478C2.60563 16.698 2.3889 16.3652 2.20799 15.8983C2.07075 15.5463 1.9084 15.0162 1.86409 14.0413C1.81562 12.9872 1.80595 12.6706 1.80595 10.0001C1.80595 7.3296 1.81642 7.01384 1.86409 5.95888C1.90848 4.98392 2.07203 4.45488 2.20799 4.10184C2.3897 3.63496 2.60611 3.30184 2.95577 2.9516C3.30543 2.60136 3.63814 2.38456 4.10568 2.2036C4.45758 2.06632 4.98751 1.90392 5.96219 1.8596C7.01596 1.81112 7.33251 1.80144 10.001 1.80144C12.6695 1.80144 12.9864 1.81192 14.0411 1.8596C15.0157 1.904 15.5446 2.0676 15.8976 2.2036C16.3643 2.38456 16.6973 2.60184 17.0475 2.9516C17.3976 3.30136 17.6135 3.63496 17.7952 4.10184C17.9325 4.45384 18.0948 4.98392 18.1392 5.95888C18.1876 7.01384 18.1973 7.3296 18.1973 10.0001C18.1973 12.6706 18.1876 12.9863 18.1392 14.0413C18.0948 15.0162 17.9316 15.5462 17.7952 15.8983C17.6135 16.3652 17.3971 16.6983 17.0475 17.0478C16.6978 17.3972 16.3643 17.614 15.8976 17.7958C15.5457 17.933 15.0157 18.0954 14.0411 18.1398C12.9873 18.1882 12.6707 18.1979 10.001 18.1979C7.33131 18.1979 7.01564 18.1882 5.96219 18.1398ZM5.87941 0.06056C4.81516 0.10904 4.08793 0.27784 3.45283 0.52504C2.7951 0.78032 2.2383 1.1228 1.6819 1.67848C1.1255 2.23416 0.784001 2.792 0.528795 3.44992C0.281666 4.0856 0.112915 4.81264 0.0644488 5.8772C0.015183 6.94344 0.00390625 7.28432 0.00390625 10C0.00390625 12.7157 0.015183 13.0566 0.0644488 14.1228C0.112915 15.1874 0.281666 15.9144 0.528795 16.5501C0.784001 17.2076 1.12558 17.7661 1.6819 18.3215C2.23822 18.877 2.7951 19.219 3.45283 19.475C4.08913 19.7222 4.81516 19.891 5.87941 19.9394C6.9459 19.9879 7.28612 20 10.001 20C12.7159 20 13.0567 19.9887 14.1226 19.9394C15.187 19.891 15.9137 19.7222 16.5492 19.475C17.2065 19.219 17.7637 18.8772 18.3201 18.3215C18.8765 17.7658 19.2173 17.2076 19.4732 16.5501C19.7204 15.9144 19.8899 15.1874 19.9376 14.1228C19.9861 13.0558 19.9973 12.7157 19.9973 10C19.9973 7.28432 19.9861 6.94344 19.9376 5.8772C19.8891 4.81256 19.7204 4.0852 19.4732 3.44992C19.2173 2.7924 18.8757 2.23504 18.3201 1.67848C17.7646 1.12192 17.2065 0.78032 16.55 0.52504C15.9137 0.27784 15.1869 0.10824 14.1234 0.06056C13.0575 0.01208 12.7167 0 10.0018 0C7.28692 0 6.9459 0.01128 5.87941 0.06056Z" fill="white"/>
</svg>
