<svg xmlns="http://www.w3.org/2000/svg" width="20" height="22" viewBox="0 0 20 22" fill="none">
  <path d="M11.0527 10.4163L14.5415 6.88551L3.27273 0.475815C2.52589 0.0674474 1.82623 0.010133 1.21271 0.45671L11.0527 10.4163ZM15.1361 14.5502L18.763 12.4856C19.4709 12.0844 19.8591 11.5161 19.8591 10.8856C19.8591 10.2563 19.4709 9.68676 18.7642 9.28556L15.4807 7.41925L11.7842 11.159L15.1361 14.5502ZM0.606266 1.32479C0.530756 1.56002 0.488281 1.82271 0.488281 2.11048V19.6691C0.488281 20.124 0.587389 20.5157 0.766726 20.8273L10.32 11.1578L0.606266 1.32479ZM11.0527 11.8982L1.55251 21.5139C1.7342 21.5843 1.93006 21.6213 2.13653 21.6213C2.50465 21.6213 2.8881 21.5115 3.27863 21.2918L14.1982 15.0863L11.0527 11.8982Z" fill="#BABABA"/>
</svg>