<svg width="26" height="22" viewBox="0 0 26 22" fill="none" xmlns="http://www.w3.org/2000/svg">
<g id="Frame" clip-path="url(#clip0_3422_6038)">
<path id="Vector" d="M2.44496 9.87802C2.44496 9.87802 12.8689 5.48764 16.4841 3.94168C17.8699 3.32335 22.5697 1.34452 22.5697 1.34452C22.5697 1.34452 24.7389 0.478852 24.5581 2.58127C24.4978 3.44702 24.0158 6.47697 23.5338 9.75435C22.8107 14.3921 22.0274 19.4627 22.0274 19.4627C22.0274 19.4627 21.9069 20.885 20.8826 21.1323C19.8583 21.3797 18.1712 20.2667 17.8699 20.0193C17.6289 19.8338 13.3509 17.0511 11.7843 15.6907C11.3625 15.3197 10.8805 14.5777 11.8445 13.7119C14.0137 11.6713 16.6046 9.13602 18.1711 7.52827C18.8942 6.78618 19.6172 5.05477 16.6046 7.15718C12.3266 10.1872 8.10882 13.0317 8.10882 13.0317C8.10882 13.0317 7.14473 13.6501 5.33714 13.0935C3.52947 12.5371 1.42058 11.795 1.42058 11.795C1.42058 11.795 -0.0254223 10.8674 2.44496 9.87802Z" fill="white"/>
</g>
<defs>
<clipPath id="clip0_3422_6038">
<rect width="25" height="21" fill="white" transform="translate(0.5 0.5)"/>
</clipPath>
</defs>
</svg>
